<?xml version="1.0" encoding="utf-8"?>
<!-- Generator: Adobe Illustrator 22.1.0, SVG Export Plug-In . SVG Version: 6.00 Build 0)  -->
<svg version="1.1" id="Layer_1" xmlns="http://www.w3.org/2000/svg" xmlns:xlink="http://www.w3.org/1999/xlink" x="0px" y="0px"
	 viewBox="0 0 400 400" style="enable-background:new 0 0 400 400;" xml:space="preserve">
<g>
	<g>
		<path d="M126.8,110.1c-3.3,3.5-4.4,7.8-4.7,12.6c-0.3,4.3-0.6,9.6,2.6,12.9c5.8,6.1,19.5,7.4,23.7-1c2.1-4.3,2.3-10.4,2.2-15.1
			c-0.1-4.9-1.4-10-5.1-13.5c-5.1-4.9-20.1-6.7-23.8,0.7c-1.4,2.9,2.9,5.4,4.3,2.5c1.2-2.5,5.8-2.2,8-2.2c3.8,0.1,7.3,1,9.5,4.3
			c3.2,5,2.5,13.2,1.1,18.7c-1.1,4.5-4.6,5.9-9,5c-2.8-0.6-5.7-1.3-7.4-3.6c-3.1-4.2-1.4-14.2,2.1-17.9
			C132.5,111.4,129,107.8,126.8,110.1L126.8,110.1z"/>
	</g>
</g>
<g>
	<g>
		<path d="M225.4,102.8c-4.3,10.9,10.3,14.1,17.9,12.1c9.1-2.4,19.1-11.8,12.2-21.3c-5.9-8.1-16.5-12.4-25.1-5.9
			c-5.9,4.5-14,18.4-7.8,25.2c2.2,2.4,5.7-1.2,3.5-3.5c-3-3.3,3-13.4,5.3-15.9c5.2-5.6,11.6-4.8,17.1-0.2c2.4,2,5.2,4.8,4.3,8.3
			c-0.7,2.9-4.1,5.3-6.5,6.7c-2.5,1.3-5.3,2.2-8.1,2.3c-3.7,0.1-9.9-1.7-7.9-6.5C231.5,101.1,226.6,99.8,225.4,102.8L225.4,102.8z"
			/>
	</g>
</g>
<g>
	<g>
		<path d="M130.2,212.1c30.6,21.1,65.5,36.6,102.6,40.7c34,3.8,76.3-2.5,93.2-36.6c8.5-17,8.5-36.9,4-55c-0.8-3.1-5.6-1.8-4.8,1.3
			c3.9,15.9,4.3,33.3-2.3,48.6c-6.8,15.6-20.6,26.6-36.4,32.2c-32.5,11.5-70.8,4.4-102-7.7c-18.3-7.1-35.6-16.7-51.8-27.9
			C130,205.9,127.5,210.3,130.2,212.1L130.2,212.1z"/>
	</g>
</g>
</svg>
